<?xml version="1.0" encoding="UTF-8" standalone="no"?>
<svg
   xmlns:dc="http://purl.org/dc/elements/1.1/"
   xmlns:cc="http://creativecommons.org/ns#"
   xmlns:rdf="http://www.w3.org/1999/02/22-rdf-syntax-ns#"
   xmlns:svg="http://www.w3.org/2000/svg"
   xmlns="http://www.w3.org/2000/svg"
   xmlns:sodipodi="http://sodipodi.sourceforge.net/DTD/sodipodi-0.dtd"
   xmlns:inkscape="http://www.inkscape.org/namespaces/inkscape"
   height="128px"
   version="1.1"
   viewBox="0 0 128 128"
   width="128px"
   id="svg3772"
   sodipodi:docname="Applications.svg"
   inkscape:version="0.92.1 r15371">
  <metadata
     id="metadata3776">
    <rdf:RDF>
      <cc:Work
         rdf:about="">
        <dc:format>image/svg+xml</dc:format>
        <dc:type
           rdf:resource="http://purl.org/dc/dcmitype/StillImage" />
        <dc:title></dc:title>
      </cc:Work>
    </rdf:RDF>
  </metadata>
  <sodipodi:namedview
     pagecolor="#ffffff"
     bordercolor="#666666"
     borderopacity="1"
     objecttolerance="10"
     gridtolerance="10"
     guidetolerance="10"
     inkscape:pageopacity="0"
     inkscape:pageshadow="2"
     inkscape:window-width="1366"
     inkscape:window-height="744"
     id="namedview3774"
     showgrid="false"
     inkscape:zoom="4.1976744"
     inkscape:cx="62.315789"
     inkscape:cy="64"
     inkscape:window-x="0"
     inkscape:window-y="24"
     inkscape:window-maximized="1"
     inkscape:current-layer="svg3772"
     showguides="true"
     inkscape:guide-bbox="true">
    <sodipodi:guide
       position="13.817174,77.66205"
       orientation="0,1"
       id="guide4679"
       inkscape:locked="false" />
    <sodipodi:guide
       position="15.00831,26.204986"
       orientation="0,1"
       id="guide4681"
       inkscape:locked="false" />
    <sodipodi:guide
       position="32.398892,57.174515"
       orientation="1,0"
       id="guide4683"
       inkscape:locked="false" />
    <sodipodi:guide
       position="94.814404,63.368421"
       orientation="1,0"
       id="guide4685"
       inkscape:locked="false" />
  </sodipodi:namedview>
  <desc
     id="desc3750" />
  <defs
     id="defs3752" />
  <g
     id="g4595">
    <path
       style="fill:#919191;fill-rule:evenodd;stroke:none;stroke-width:1"
       inkscape:connector-curvature="0"
       id="Shape"
       d="M 120,11.013925 H 48 C 48,6.5893413 44.418,3 40,3 H 8 C 3.582,3 0,6.5893413 0,11.013925 v 8.00992 12.019887 4.005961 c 0,4.424584 3.582,8.011923 8,8.011923 h 112 c 4.418,0 8,-3.587339 8,-8.011923 V 19.023845 c 0,-4.424584 -3.582,-8.00992 -8,-8.00992 z" />
    <path
       style="fill:#000000;fill-rule:evenodd;stroke:none;stroke-width:1"
       inkscape:connector-curvature="0"
       id="path3755"
       d="M 112,19.023845 H 16 c -4.418,0 -8,3.587338 -8,8.013925 v 8.011923 c 0,4.424584 3.582,8.011923 8,8.011923 h 96 c 4.418,0 8,-3.587339 8,-8.011923 V 27.03777 c 0,-4.426587 -3.582,-8.013925 -8,-8.013925 z" />
    <path
       style="fill:#c7c7c7;fill-rule:evenodd;stroke:none;stroke-width:1"
       inkscape:connector-curvature="0"
       id="path3757"
       d="M 120.10526,26.932507 H 8.105263 c -4.4179996,0 -7.9999996,3.587339 -7.9999996,8.011923 v 80.11923 c 0,4.42458 3.582,8.01191 7.9999996,8.01191 H 120.10526 c 4.418,0 8,-3.58733 8,-8.01191 V 34.94443 c 0,-4.424584 -3.582,-8.011923 -8,-8.011923 z" />
  </g>
  <g
     id="g4664"
     transform="matrix(0.09872596,0,0,0.09872596,38.229705,50.975942)"
     style="fill:#919191;fill-opacity:1">
    <polygon
       id="polygon4654"
       points="15.603,111.046 66.727,188.033 252.356,83.527 171.098,3.664 "
       style="fill:#919191;fill-opacity:1" />
    <polygon
       id="polygon4656"
       points="5.341,249.654 171.703,377.173 252.356,293.467 66.727,188.966 "
       style="fill:#919191;fill-opacity:1" />
    <polygon
       id="polygon4658"
       points="437.258,340.216 331.1,406.937 253.315,330.309 168.21,406.649 62.527,334.889 63.312,401.822 251.642,508.337 437.258,400.204 "
       style="fill:#919191;fill-opacity:1" />
    <polygon
       id="polygon4660"
       points="494.026,255.138 439.906,188.966 254.276,293.467 332.146,377.727 "
       style="fill:#919191;fill-opacity:1" />
    <polygon
       id="polygon4662"
       points="254.276,83.527 439.906,188.033 508,116.016 355.551,3.664 "
       style="fill:#919191;fill-opacity:1" />
  </g>
</svg>
