<?xml version="1.0" encoding="UTF-8" standalone="no"?>
<svg
   xmlns:dc="http://purl.org/dc/elements/1.1/"
   xmlns:cc="http://creativecommons.org/ns#"
   xmlns:rdf="http://www.w3.org/1999/02/22-rdf-syntax-ns#"
   xmlns:svg="http://www.w3.org/2000/svg"
   xmlns="http://www.w3.org/2000/svg"
   xmlns:xlink="http://www.w3.org/1999/xlink"
   xmlns:sodipodi="http://sodipodi.sourceforge.net/DTD/sodipodi-0.dtd"
   xmlns:inkscape="http://www.inkscape.org/namespaces/inkscape"
   height="128px"
   version="1.1"
   viewBox="0 0 128 128"
   width="128px"
   id="svg3772"
   sodipodi:docname="Default.svg"
   inkscape:version="0.92.1 r15371">
  <metadata
     id="metadata3776">
    <rdf:RDF>
      <cc:Work
         rdf:about="">
        <dc:format>image/svg+xml</dc:format>
        <dc:type
           rdf:resource="http://purl.org/dc/dcmitype/StillImage" />
        <dc:title></dc:title>
      </cc:Work>
    </rdf:RDF>
  </metadata>
  <sodipodi:namedview
     pagecolor="#ffffff"
     bordercolor="#666666"
     borderopacity="1"
     objecttolerance="10"
     gridtolerance="10"
     guidetolerance="10"
     inkscape:pageopacity="0"
     inkscape:pageshadow="2"
     inkscape:window-width="1366"
     inkscape:window-height="744"
     id="namedview3774"
     showgrid="false"
     inkscape:zoom="3.9699131"
     inkscape:cx="63.81332"
     inkscape:cy="62.831576"
     inkscape:window-x="0"
     inkscape:window-y="24"
     inkscape:window-maximized="1"
     inkscape:current-layer="svg3772"
     showguides="true"
     inkscape:guide-bbox="true">
    <sodipodi:guide
       position="92.77475,78.294035"
       orientation="0,1"
       id="guide7794"
       inkscape:locked="false" />
    <sodipodi:guide
       position="64.304192,25.770764"
       orientation="0,1"
       id="guide7796"
       inkscape:locked="false" />
    <sodipodi:guide
       position="35.053353,53.252477"
       orientation="1,0"
       id="guide7798"
       inkscape:locked="false" />
    <sodipodi:guide
       position="92.77475,68.476601"
       orientation="1,0"
       id="guide7800"
       inkscape:locked="false" />
  </sodipodi:namedview>
  <desc
     id="desc3750" />
  <defs
     id="defs3752" />
  <g
     fill="none"
     fill-rule="evenodd"
     id="Page-1"
     stroke="none"
     stroke-width="1">
    <g
       id="soundcloud_folder">
      <path
         d="M120,11.0139255 L48,11.0139255 C48,6.58934128 44.418,3 40,3 L8,3 C3.582,3 0,6.58934128 0,11.0139255 L0,19.023845 L0,31.0437317 L0,35.049693 C0,39.4742772 3.582,43.0616155 8,43.0616155 L120,43.0616155 C124.418,43.0616155 128,39.4742772 128,35.049693 L128,19.023845 C128,14.5992608 124.418,11.0139255 120,11.0139255 L120,11.0139255 Z"
         fill="#919191"
         id="Shape" />
      <path
         d="M112,19.023845 L16,19.023845 C11.582,19.023845 8,22.6111833 8,27.0377705 L8,35.049693 C8,39.4742772 11.582,43.0616155 16,43.0616155 L112,43.0616155 C116.418,43.0616155 120,39.4742772 120,35.049693 L120,27.0377705 C120,22.6111833 116.418,19.023845 112,19.023845 L112,19.023845 Z"
         fill="#000000"
         id="path3755" />
      <path
         d="M120,27.0377705 L8,27.0377705 C3.582,27.0377705 0,30.6251088 0,35.049693 L0,115.168918 C0,119.593502 3.582,123.180841 8,123.180841 L120,123.180841 C124.418,123.180841 128,119.593502 128,115.168918 L128,35.049693 C128,30.6251088 124.418,27.0377705 120,27.0377705 L120,27.0377705 Z"
         fill="#C7C7C7"
         id="path3757" />
      <g
         fill="#000000"
         id="Group"
         transform="translate(34.000000, 58.000000)">
        <path
           d="M48.202229,14.1017159 C46.9843535,14.1017159 45.8305768,14.3367445 44.7408987,14.8068017 C44.5058701,12.114656 43.6725869,9.63617255 42.2196828,7.39271774 C40.7667788,5.14926294 38.88655,3.37586533 36.536264,2.09389115 C34.185978,0.790550741 31.6647621,0.149563654 28.9512501,0.149563654 C27.7761071,0.149563654 26.6009641,0.299127308 25.4044549,0.576888379 C24.8489328,0.747818269 24.5711717,1.32470665 24.5711717,2.24345481 L24.5711717,31.6220297 C24.5711717,31.7288608 24.6139042,31.8570583 24.6993691,32.0066219 C24.7848341,32.1561856 24.8916652,32.2416505 25.0625951,32.3057492 L48.2235952,32.3271155 C50.6807124,32.3271155 52.7959698,31.4297335 54.5693674,29.6563359 C56.342765,27.8829383 57.2187807,25.7249484 57.2187807,23.2037326 C57.2187807,20.7038829 56.342765,18.5672593 54.5693674,16.7724955 C52.817336,14.9990978 50.6807124,14.1017159 48.202229,14.1017159 L48.202229,14.1017159 Z"
           id="path3759" />
        <path
           d="M1.98705997,16.729763 C1.45290407,16.729763 1.0042131,16.9220591 0.619620851,17.3066514 C0.235028599,17.6912436 0.0427324725,18.1613008 0.0427324725,18.716823 L0.0427324725,26.5368654 C0.0427324725,27.2633175 0.299127308,27.7974734 0.811916978,28.1606994 C1.32470665,28.5239254 1.88022879,28.6521228 2.45711717,28.5452916 C3.01263931,28.4384605 3.39723156,28.2461643 3.61089393,27.947037 C3.82455629,27.6479097 3.95275371,27.1778525 3.95275371,26.5154992 L3.95275371,18.6954567 C3.95275371,18.1399346 3.76045758,17.6698774 3.37586533,17.2852851 C2.99127308,16.9220591 2.54258211,16.729763 1.98705997,16.729763 L1.98705997,16.729763 Z"
           id="path3761" />
        <path
           d="M8.09780354,9.67890502 C7.56364763,9.67890502 7.11495667,9.87120115 6.73036442,10.2557934 C6.34577217,10.6403857 6.15347604,11.1104429 6.15347604,11.6445988 L6.15347604,29.8913645 C6.15347604,30.4041542 6.34577217,30.8101127 6.70899818,31.0665075 C7.0722242,31.3229023 7.5422814,31.4510998 8.09780354,31.4510998 C8.67469192,31.4510998 9.16611535,31.3229023 9.52934137,31.0665075 C9.89256739,30.8101127 10.0634973,30.4041542 10.0634973,29.8913645 L10.0634973,11.6445988 C10.0634973,11.1104429 9.87120115,10.6403857 9.4866089,10.2557934 C9.12338288,9.87120115 8.65332568,9.67890502 8.09780354,9.67890502 L8.09780354,9.67890502 Z"
           id="path3763" />
        <path
           d="M14.2512796,12.0719235 C13.6957574,12.0719235 13.2257002,12.2642196 12.841108,12.6701781 C12.4565157,13.0547704 12.2642196,13.5461938 12.2642196,14.1017159 L12.2642196,30.746014 L12.2642196,30.746014 C12.2642196,31.2588036 12.4565157,31.6647621 12.8197418,31.921157 C13.1829678,32.1775518 13.6743912,32.3057492 14.2512796,32.3057492 C14.828168,32.3057492 15.2768589,32.1775518 15.6400849,31.921157 C16.003311,31.6647621 16.1742408,31.2588036 16.1742408,30.746014 L16.1742408,14.1017159 C16.1742408,13.5461938 15.9819447,13.0761366 15.5973525,12.6701781 C15.2341264,12.2855858 14.7854355,12.0719235 14.2512796,12.0719235 L14.2512796,12.0719235 Z"
           id="path3765" />
        <path
           d="M20.9602778,1.28197418 C20.3833894,1.13241052 19.806501,1.30334041 19.2296126,1.79476385 C18.6527242,2.28618728 18.3749632,2.96990684 18.3749632,3.84592253 L18.3749632,30.8314789 L18.3749632,30.8314789 C18.3749632,31.8143258 19.0373165,32.3057492 20.3406569,32.3057492 C21.6439973,32.3057492 22.3063506,31.8143258 22.3063506,30.8314789 L22.3063506,3.84592253 C22.3063506,2.35028599 21.8576597,1.49563654 20.9602778,1.28197418 L20.9602778,1.28197418 Z"
           id="path3767" />
      </g>
    </g>
  </g>
  <path
     style="fill:#000000;stroke-width:0.21052632"
     d="m 58.835088,90.091227 c -0.07719,-0.07719 -0.140351,-7.033583 -0.140351,-15.458646 0,-17.008308 -0.106624,-15.803819 1.42782,-16.129574 1.234286,-0.262033 5.088507,-0.183673 6.361654,0.129338 6.356071,1.562682 11.057535,6.819874 12.103961,13.534687 l 0.121173,0.777557 0.782169,-0.273928 c 4.070911,-1.425702 8.695248,0.562424 10.688358,4.595208 1.24465,2.518379 1.233894,5.461234 -0.02923,7.996483 -0.626257,1.256976 -2.347852,3.085711 -3.594764,3.818469 -1.904351,1.11911 -2.32924,1.150758 -15.449236,1.150758 -6.672164,0 -12.194365,-0.06316 -12.271558,-0.140352 z"
     id="path3786"
     inkscape:connector-curvature="0" />
  <path
     style="fill:#c7c7c7;fill-opacity:1;stroke:#c7c7c7;stroke-width:0.21052632;stroke-opacity:1"
     d="M 63.117188 58.283203 C 61.089658 58.266468 59.244488 58.557559 58.964844 59.080078 C 58.726085 59.526208 58.668799 89.862157 58.90625 90.099609 C 58.987676 90.181029 64.748049 90.22068 71.707031 90.1875 L 84.359375 90.126953 L 85.960938 89.333984 C 89.826795 87.422955 91.806026 83.371439 90.886719 79.248047 C 89.815797 74.444612 85.101543 71.360788 80.4375 72.414062 C 79.601503 72.602854 78.847359 72.757812 78.761719 72.757812 C 78.676075 72.757812 78.544573 72.24379 78.470703 71.615234 C 78.295482 70.124382 77.333151 67.426042 76.425781 65.882812 C 76.029401 65.208664 74.895085 63.837539 73.904297 62.835938 C 72.328582 61.243025 71.827385 60.883356 69.904297 59.960938 C 68.695085 59.380933 67.237918 58.797004 66.666016 58.662109 C 65.616984 58.414673 64.333701 58.293244 63.117188 58.283203 z M 54.669922 59.3125 C 54.399959 59.286595 54.109135 59.390195 53.677734 59.613281 C 52.423535 60.261854 52.441406 60.031853 52.441406 75.367188 L 52.441406 89.359375 L 52.996094 89.794922 C 53.726969 90.369805 54.947732 90.368309 55.681641 89.791016 L 56.242188 89.349609 L 56.183594 74.824219 L 56.126953 60.300781 L 55.535156 59.792969 C 55.189004 59.495271 54.939885 59.338405 54.669922 59.3125 z M 42.083984 67.753906 C 41.885516 67.764594 41.678667 67.840678 41.369141 67.988281 C 40.969549 68.178833 40.550659 68.577369 40.4375 68.875 C 40.145299 69.643557 40.161633 88.023959 40.455078 88.572266 C 40.578437 88.802763 40.887668 89.079655 41.140625 89.1875 C 41.876996 89.501441 43.232155 89.264548 43.650391 88.748047 C 43.991854 88.326362 44.021484 87.547627 44.021484 78.830078 C 44.021484 68.426497 44.02189 68.440088 42.751953 67.914062 C 42.472219 67.798191 42.282452 67.743219 42.083984 67.753906 z M 48.185547 70.203125 C 47.71313 70.22193 47.24504 70.448425 46.882812 70.878906 L 46.335938 71.527344 L 46.335938 80.261719 C 46.335938 86.039443 46.412184 89.138798 46.560547 89.416016 C 46.683906 89.646514 46.993137 89.923406 47.246094 90.03125 C 47.988503 90.347763 49.337042 90.106485 49.761719 89.582031 C 50.11301 89.148208 50.135158 88.507665 50.080078 80.216797 L 50.021484 71.318359 L 49.509766 70.775391 C 49.13286 70.374332 48.657964 70.18432 48.185547 70.203125 z M 35.882812 74.855469 C 35.439854 74.87974 35.018753 75.099478 34.671875 75.511719 L 34.126953 76.158203 L 34.126953 80.685547 L 34.126953 85.210938 L 34.742188 85.826172 C 35.479099 86.563083 36.557182 86.652264 37.314453 86.039062 C 37.810913 85.637062 37.810547 85.631286 37.810547 80.757812 L 37.810547 75.878906 L 37.220703 75.371094 C 36.790921 75.00141 36.325771 74.831197 35.882812 74.855469 z "
     id="path4636" />
  <use
     id="use4651"
     inkscape:spray-origin="#path4636"
     xlink:href="#path4636"
     x="0"
     y="0"
     width="100%"
     height="100%"
     transform="translate(-28.836049,3.8808262)" />
  <use
     id="use4653"
     inkscape:spray-origin="#path4636"
     xlink:href="#path4636"
     x="0"
     y="0"
     width="100%"
     height="100%"
     transform="translate(-30.926341,12.703288)" />
  <use
     id="use4655"
     inkscape:spray-origin="#path4636"
     xlink:href="#path4636"
     x="0"
     y="0"
     width="100%"
     height="100%"
     transform="translate(-25.435748,11.6576)" />
  <use
     id="use4657"
     inkscape:spray-origin="#path4636"
     xlink:href="#path4636"
     x="0"
     y="0"
     width="100%"
     height="100%"
     transform="translate(-22.082834,8.1940078)" />
  <use
     id="use4659"
     inkscape:spray-origin="#path4636"
     xlink:href="#path4636"
     x="0"
     y="0"
     width="100%"
     height="100%"
     transform="translate(-26.788573,11.151464)" />
  <use
     id="use4661"
     inkscape:spray-origin="#path4636"
     xlink:href="#path4636"
     x="0"
     y="0"
     width="100%"
     height="100%"
     transform="translate(-26.061465,14.034759)" />
  <use
     id="use4663"
     inkscape:spray-origin="#path4636"
     xlink:href="#path4636"
     x="0"
     y="0"
     width="100%"
     height="100%"
     transform="translate(-23.120855,15.208855)" />
  <use
     id="use4665"
     inkscape:spray-origin="#path4636"
     xlink:href="#path4636"
     x="0"
     y="0"
     width="100%"
     height="100%"
     transform="translate(-24.39399,9.5326351)" />
  <use
     id="use4667"
     inkscape:spray-origin="#path4636"
     xlink:href="#path4636"
     x="0"
     y="0"
     width="100%"
     height="100%"
     transform="translate(-24.728152,14.993723)" />
  <use
     id="use4669"
     inkscape:spray-origin="#path4636"
     xlink:href="#path4636"
     x="0"
     y="0"
     width="100%"
     height="100%"
     transform="translate(-24.293182,15.944418)" />
  <use
     id="use4671"
     inkscape:spray-origin="#path4636"
     xlink:href="#path4636"
     x="0"
     y="0"
     width="100%"
     height="100%"
     transform="translate(-28.063835,16.46432)" />
  <use
     id="use4673"
     inkscape:spray-origin="#path4636"
     xlink:href="#path4636"
     x="0"
     y="0"
     width="100%"
     height="100%"
     transform="translate(-19.731838,14.985675)" />
  <use
     id="use4675"
     inkscape:spray-origin="#path4636"
     xlink:href="#path4636"
     x="0"
     y="0"
     width="100%"
     height="100%"
     transform="translate(-30.1343,8.8241333)" />
  <use
     id="use4677"
     inkscape:spray-origin="#path4636"
     xlink:href="#path4636"
     x="0"
     y="0"
     width="100%"
     height="100%"
     transform="translate(-22.391617,5.7773967)" />
  <use
     id="use4679"
     inkscape:spray-origin="#path4636"
     xlink:href="#path4636"
     x="0"
     y="0"
     width="100%"
     height="100%"
     transform="translate(-19.478539,3.2143069)" />
  <use
     id="use4681"
     inkscape:spray-origin="#path4636"
     xlink:href="#path4636"
     x="0"
     y="0"
     width="100%"
     height="100%"
     transform="translate(-25.51106,1.5628965)" />
  <use
     id="use4683"
     inkscape:spray-origin="#path4636"
     xlink:href="#path4636"
     x="0"
     y="0"
     width="100%"
     height="100%"
     transform="translate(-26.470062,1.5242734)" />
  <use
     id="use4685"
     inkscape:spray-origin="#path4636"
     xlink:href="#path4636"
     x="0"
     y="0"
     width="100%"
     height="100%"
     transform="translate(-22.001738,-0.34467599)" />
  <use
     id="use4687"
     inkscape:spray-origin="#path4636"
     xlink:href="#path4636"
     x="0"
     y="0"
     width="100%"
     height="100%"
     transform="translate(-24.863924,1.9331448)" />
  <use
     id="use4689"
     inkscape:spray-origin="#path4636"
     xlink:href="#path4636"
     x="0"
     y="0"
     width="100%"
     height="100%"
     transform="translate(-16.250721,-9.7590821)" />
  <use
     id="use4691"
     inkscape:spray-origin="#path4636"
     xlink:href="#path4636"
     x="0"
     y="0"
     width="100%"
     height="100%"
     transform="translate(-16.976866,-2.3403692)" />
  <use
     id="use4693"
     inkscape:spray-origin="#path4636"
     xlink:href="#path4636"
     x="0"
     y="0"
     width="100%"
     height="100%"
     transform="translate(-17.310852,-1.16197)" />
  <use
     id="use4695"
     inkscape:spray-origin="#path4636"
     xlink:href="#path4636"
     x="0"
     y="0"
     width="100%"
     height="100%"
     transform="translate(-10.447438,-2.8958191)" />
  <use
     id="use4697"
     inkscape:spray-origin="#path4636"
     xlink:href="#path4636"
     x="0"
     y="0"
     width="100%"
     height="100%"
     transform="translate(-11.799716,-9.4544764)" />
  <use
     id="use4699"
     inkscape:spray-origin="#path4636"
     xlink:href="#path4636"
     x="0"
     y="0"
     width="100%"
     height="100%"
     transform="translate(-7.6683312,-11.090913)" />
  <use
     id="use4701"
     inkscape:spray-origin="#path4636"
     xlink:href="#path4636"
     x="0"
     y="0"
     width="100%"
     height="100%"
     transform="translate(-8.7408675,-11.778714)" />
  <use
     id="use4703"
     inkscape:spray-origin="#path4636"
     xlink:href="#path4636"
     x="0"
     y="0"
     width="100%"
     height="100%"
     transform="translate(-9.678097,-9.544854)" />
  <use
     id="use4705"
     inkscape:spray-origin="#path4636"
     xlink:href="#path4636"
     x="0"
     y="0"
     width="100%"
     height="100%"
     transform="translate(-7.9763569,-12.164742)" />
  <use
     id="use4707"
     inkscape:spray-origin="#path4636"
     xlink:href="#path4636"
     x="0"
     y="0"
     width="100%"
     height="100%"
     transform="translate(25.809171,17.371161)" />
  <use
     id="use4709"
     inkscape:spray-origin="#path4636"
     xlink:href="#path4636"
     x="0"
     y="0"
     width="100%"
     height="100%"
     transform="translate(27.84249,15.615094)" />
  <use
     id="use4711"
     inkscape:spray-origin="#path4636"
     xlink:href="#path4636"
     x="0"
     y="0"
     width="100%"
     height="100%"
     transform="translate(25.027132,6.8375744)" />
  <use
     id="use4713"
     inkscape:spray-origin="#path4636"
     xlink:href="#path4636"
     x="0"
     y="0"
     width="100%"
     height="100%"
     transform="translate(28.956631,6.9655131)" />
  <use
     id="use4715"
     inkscape:spray-origin="#path4636"
     xlink:href="#path4636"
     x="0"
     y="0"
     width="100%"
     height="100%"
     transform="translate(26.256128,13.722248)" />
  <use
     id="use4717"
     inkscape:spray-origin="#path4636"
     xlink:href="#path4636"
     x="0"
     y="0"
     width="100%"
     height="100%"
     transform="translate(22.911911,7.3551315)" />
  <use
     id="use4719"
     inkscape:spray-origin="#path4636"
     xlink:href="#path4636"
     x="0"
     y="0"
     width="100%"
     height="100%"
     transform="translate(23.863523,10.527036)" />
  <use
     id="use4721"
     inkscape:spray-origin="#path4636"
     xlink:href="#path4636"
     x="0"
     y="0"
     width="100%"
     height="100%"
     transform="translate(27.70613,7.9493789)" />
  <use
     id="use4723"
     inkscape:spray-origin="#path4636"
     xlink:href="#path4636"
     x="0"
     y="0"
     width="100%"
     height="100%"
     transform="translate(24.147469,-1.0618916)" />
  <use
     id="use4725"
     inkscape:spray-origin="#path4636"
     xlink:href="#path4636"
     x="0"
     y="0"
     width="100%"
     height="100%"
     transform="translate(28.186917,-3.3513827)" />
  <use
     id="use4727"
     inkscape:spray-origin="#path4636"
     xlink:href="#path4636"
     x="0"
     y="0"
     width="100%"
     height="100%"
     transform="translate(24.559859,-4.9314008)" />
  <use
     id="use4729"
     inkscape:spray-origin="#path4636"
     xlink:href="#path4636"
     x="0"
     y="0"
     width="100%"
     height="100%"
     transform="translate(24.290341,-0.10622253)" />
  <use
     id="use4731"
     inkscape:spray-origin="#path4636"
     xlink:href="#path4636"
     x="0"
     y="0"
     width="100%"
     height="100%"
     transform="translate(27.705741,-5.8979121)" />
  <path
     style="fill:#008080;fill-opacity:0.61764706;stroke:#008080;stroke-width:0.21052632;stroke-opacity:1"
     d="M 0.12064341,21.284211 0.16842084,9.2842105 0.656968,8.0743876 C 1.3389474,6.3855549 2.9198053,4.722056 4.6541634,3.8682343 L 6.054304,3.1789474 h 17.899163 17.899164 l 1.415741,0.6706635 c 2.491626,1.1803318 4.263697,3.5473864 4.520826,6.0387167 l 0.121747,1.1796204 36.970844,0.0555 36.970841,0.0555 1.36902,0.648803 c 1.67751,0.794997 3.14525,2.223447 3.93268,3.827409 l 0.59304,1.207999 0.0622,8 0.0622,8 -0.64339,-1.287352 c -0.75953,-1.519728 -2.52175,-3.2732 -3.95458,-3.934941 l -1.00016,-0.461918 H 64.063158 5.8526314 L 4.6694712,27.73372 C 2.6444848,28.683215 1.1366431,30.352954 0.35217678,32.514564 0.11530659,33.167265 0.08012564,31.46084 0.12064341,21.284211 Z"
     id="path5016"
     inkscape:connector-curvature="0" />
  <path
     style="fill:#008080;fill-opacity:0.61764706;stroke:#008080;stroke-width:0.21052632;stroke-opacity:1"
     d="M 5.4315787,122.6282 C 2.8328684,121.73746 0.86941038,119.56048 0.29363632,116.93149 0.17185545,116.37544 0.07295728,95.206408 0.0395628,62.547368 L -0.01511505,9.0736842 0.57962787,7.8533486 C 1.4337584,6.1007834 2.7527394,4.7349865 4.4549025,3.840525 L 5.9142034,3.0736842 H 23.958583 42.002962 l 1.308762,0.6246152 c 2.344564,1.1189569 4.298773,3.6974021 4.650516,6.1360368 l 0.140082,0.9711788 36.875834,0.09854 36.875834,0.09854 1.38325,0.660163 c 1.61715,0.771794 3.22628,2.358549 4.11716,4.059917 l 0.59719,1.14049 -0.0634,49.789474 c -0.0532,41.784101 -0.11055,49.958721 -0.3568,50.842111 -0.59384,2.13036 -2.23861,3.98426 -4.43239,4.99597 l -1.03586,0.47771 -57.684213,0.0464 -57.6842104,0.0464 z"
     id="path5018"
     inkscape:connector-curvature="0" />
  <g
     style="fill:#006d6d;fill-rule:evenodd;stroke:none;stroke-width:1;fill-opacity:1"
     id="Group-3"
     transform="matrix(3.6640504,0,0,3.2550876,-2603.6952,-1199.4719)" />
  <g
     id="background"
     transform="matrix(1.7559837,0,0,1.4967748,44.287093,53.324564)">
    <rect
       style="fill:none"
       y="0"
       x="0"
       height="32"
       width="32"
       id="rect6384" />
  </g>
  <g
     id="background-6"
     transform="translate(47.455488,48.544512)">
    <rect
       style="fill:none"
       y="0"
       x="0"
       height="32"
       width="32"
       id="rect8097" />
  </g>
</svg>
