<?xml version="1.0" ?><!DOCTYPE svg  PUBLIC '-//W3C//DTD SVG 1.1//EN'  'http://www.w3.org/Graphics/SVG/1.1/DTD/svg11.dtd'><svg enable-background="new 0 0 512 512" height="512px" id="Layer_1" version="1.1" viewBox="0 0 512 512" width="512px" xml:space="preserve" xmlns="http://www.w3.org/2000/svg" xmlns:xlink="http://www.w3.org/1999/xlink"><path d="M274.085,274.084h201.75v165.154c0,19.896-16.271,36.166-36.168,36.166H36.168  C16.271,475.404,0,459.135,0,439.238v-330.31c0-19.891,16.271-36.166,36.168-36.166h201.75v165.155  C237.918,257.807,254.186,274.084,274.085,274.084z M475.835,36.596H310.25c-19.896,0-36.165,16.282-36.165,36.167v128.994  c0,19.886,16.269,36.166,36.165,36.166h165.585c19.894,0,36.165-16.28,36.165-36.166V72.763  C512,52.878,495.729,36.596,475.835,36.596z" fill="#7F7F7F"/></svg>